<?xml version="1.0" standalone="no"?>
<!DOCTYPE svg PUBLIC "-//W3C//DTD SVG 20010904//EN"
 "http://www.w3.org/TR/2001/REC-SVG-20010904/DTD/svg10.dtd">
<svg version="1.0" xmlns="http://www.w3.org/2000/svg"
 width="552.000000pt" height="552.000000pt" viewBox="0 0 552.000000 552.000000"
 preserveAspectRatio="xMidYMid meet">
<metadata>
Created by potrace 1.11, written by Peter Selinger 2001-2013
</metadata>
<g transform="translate(0.000000,552.000000) scale(0.100000,-0.100000)"
fill="#000000" stroke="none">
<path d="M2708 5505 c-1 -2 -23 -6 -48 -10 -258 -38 -508 -251 -595 -508 -41
-120 -42 -154 -43 -815 l0 -639 131 -21 c235 -37 360 -46 652 -47 269 0 434 9
600 35 33 5 83 12 110 16 28 3 52 8 54 10 7 7 5 1264 -2 1311 -17 115 -74 267
-119 317 -10 11 -18 23 -18 26 0 4 -9 18 -21 31 -12 13 -31 36 -43 50 -32 37
-148 129 -163 129 -7 0 -13 4 -13 9 0 7 -91 53 -110 56 -3 0 -10 3 -16 7 -12
8 -81 26 -129 34 -37 6 -222 14 -227 9z"/>
<path d="M1357 3613 c-3 -10 -4 -126 -3 -258 l1 -240 81 -1 82 -1 0 56 c0 31
0 63 1 71 1 19 50 25 56 7 3 -6 7 -183 9 -392 2 -209 7 -396 11 -415 23 -120
99 -341 130 -380 7 -8 26 -40 43 -70 49 -87 167 -220 272 -308 141 -116 340
-208 535 -247 134 -27 356 -25 486 4 21 5 39 7 39 4 0 -3 6 -1 13 4 6 6 26 13
42 17 88 20 249 97 355 170 234 162 425 440 485 706 1 3 4 19 8 35 26 108 28
156 29 533 1 352 1 353 22 350 19 -3 21 -10 21 -73 l0 -70 80 0 80 0 0 258 0
257 -80 0 -81 0 0 -67 0 -68 -179 -5 -179 -5 0 -110 -1 -110 37 -3 37 -3 -3
-367 c-2 -248 -7 -383 -15 -417 -7 -27 -14 -57 -16 -65 -49 -226 -248 -486
-466 -608 -81 -45 -115 -60 -194 -86 -124 -39 -359 -59 -422 -35 -13 5 -23 5
-23 0 0 -6 -12 -6 -27 -1 -16 5 -73 23 -128 39 -312 94 -567 357 -656 676 -31
114 -33 144 -34 510 l0 350 30 1 c17 1 32 2 35 3 4 1 5 197 1 221 -1 3 -76 5
-168 5 -93 -1 -172 0 -178 2 -5 2 -10 35 -9 73 l0 70 -77 0 c-66 0 -78 -3 -82
-17z"/>
<path d="M2022 3225 l0 -204 31 -6 c40 -6 80 -14 110 -20 12 -2 42 -6 66 -9
25 -3 63 -8 85 -11 133 -17 273 -23 501 -24 227 0 285 3 495 24 43 4 126 15
160 21 14 2 41 7 60 10 19 3 37 8 39 10 6 5 8 385 3 401 -2 7 -7 11 -11 9 -4
-3 -29 -8 -57 -12 -27 -3 -60 -8 -74 -10 -14 -2 -38 -6 -55 -9 -187 -34 -801
-40 -1020 -10 -16 2 -52 6 -80 10 -73 8 -117 15 -145 21 -14 3 -44 8 -67 10
l-41 4 0 -205z"/>
<path d="M2024 2734 c2 -104 6 -198 9 -209 3 -11 13 -46 21 -78 19 -68 61
-157 108 -224 41 -60 175 -193 194 -193 8 0 14 -3 14 -8 0 -10 115 -68 182
-91 87 -30 193 -44 287 -38 89 6 100 8 166 26 22 6 42 10 45 9 14 -2 189 97
233 133 111 91 203 222 248 355 28 82 24 66 33 135 5 31 9 125 10 208 l1 151
-45 -4 c-25 -3 -54 -7 -66 -10 -12 -2 -45 -7 -74 -11 -29 -4 -60 -8 -69 -10
-68 -12 -260 -20 -501 -20 -285 0 -431 8 -560 29 -19 3 -55 8 -80 11 -25 3
-56 7 -70 10 -14 3 -39 8 -57 11 l-32 6 3 -188z"/>
<path d="M2656 1300 c-10 -4 -12 -66 -12 -291 l1 -286 29 -38 c35 -46 76 -64
134 -59 55 5 83 22 113 71 23 36 23 42 24 320 0 185 -3 283 -10 284 -57 3
-269 3 -279 -1z"/>
<path d="M2489 806 c-2 -2 -51 -7 -109 -11 -58 -3 -118 -8 -135 -9 -90 -10
-156 -18 -205 -26 -30 -5 -76 -11 -102 -15 -26 -3 -53 -8 -60 -10 -7 -2 -25
-6 -40 -9 -126 -21 -293 -73 -403 -125 -236 -112 -248 -255 -33 -371 103 -55
270 -110 413 -136 17 -3 46 -9 65 -14 43 -10 139 -24 163 -23 9 0 17 -2 17 -6
0 -3 12 -6 28 -7 15 0 56 -3 92 -8 113 -13 142 -15 280 -23 228 -12 655 -6
794 12 16 2 57 6 90 10 138 13 334 45 439 71 34 8 73 17 86 20 13 3 32 9 43
15 10 5 18 7 18 3 0 -3 7 -1 15 6 8 7 15 10 15 6 0 -4 13 0 30 9 16 8 31 15
32 14 2 0 16 4 31 10 16 6 30 11 32 11 14 0 127 75 160 105 35 33 39 43 43 94
3 52 1 59 -32 98 -20 23 -58 54 -84 70 -46 29 -189 92 -221 98 -9 2 -41 10
-72 19 -64 19 -78 22 -174 42 -94 19 -192 36 -235 40 -19 2 -55 6 -80 9 -74
10 -110 14 -213 20 -107 7 -102 10 -112 -60 -3 -22 -12 -50 -21 -62 -8 -13
-12 -23 -9 -23 3 0 -6 -12 -20 -27 -14 -15 -25 -31 -25 -35 0 -5 -7 -8 -15 -8
-8 0 -15 -4 -15 -9 0 -5 -21 -19 -47 -31 -61 -29 -171 -32 -223 -7 -64 31
-110 68 -110 87 0 6 -4 10 -8 10 -13 0 -42 69 -48 114 -5 38 -24 72 -35 62z"/>
</g>
</svg>
